<svg xmlns="http://www.w3.org/2000/svg" viewBox="0 0 740 741">
    <path d="m584.5 658.8-1.2-.7c-20.7 15.2-42.9 28.6-66.3 39.2-123 55.6-268.1 37.4-373.2-46.8C27.9 557.8-19.8 402.3 25.2 260c3-9.4 11-33.8 17.5-40 12.1-11.5 32-8.1 38.9 7.2S79.1 252 74.8 264c-45.7 126.9-3 270.5 103.3 352.2 103.6 79.7 246.3 86.7 357.1 16.7 2.2-1.4 17.8-11.6 17.8-12.7-.7-1.1-2.1-.6-3.1-.9-13.9-3.9-28.8-6.5-42.4-10.6-30.7-9.2-21.7-50.7 9.2-47.7 31.3 9.5 65.2 14.6 96.4 24.1 10.5 3.2 17 9.1 19.4 20.1v104.3c-4.5 20.2-31 26.8-43.4 9.5-1.1-1.5-4.6-9-4.6-10.4v-50ZM152.5 79.2c0 .1.6 1.3.7 1.2 15.3-11.4 31.5-21.8 48.4-30.6C362.1-33.6 558.3 14 662.3 160.7c66.8 94.2 84.2 217 46.3 326.2-2.5 7.2-5.9 16.6-9.2 23.3-14.1 28.6-54.8 11.9-44.4-18.9 2-5.9 5-11.5 7.1-17.4 50-140-6.2-295.6-132.4-372.1-99.9-60.6-226.5-59.6-325.8 1.9-6.8 4.2-13.5 8.8-19.8 13.7-.5.6.6.8 1 1 14.9 4.2 33.4 6.7 47.5 12 27.2 10.2 16.4 49.9-11.9 46.4-31.7-9.2-65.3-14.8-96.9-24.1s-17.2-9.4-19.4-20.6V28.9c4.6-21.2 31.9-27.6 44.2-8.8.9 1.3 3.8 7.5 3.8 8.7v50.5Z"/>
    <path d="M540.8 243.2c9.2 8.3 10.1 22.8 2.7 32.5L335 484.2c-10.3 7.2-22.1 6.3-31.5-1.9L207.2 386c-20.5-23.4 8.5-53.9 32.5-35.5l79.7 79.7 1.7.2 186.3-186.7c9.4-8.8 23.7-9.2 33.3-.5Z"/>
</svg>
